<svg id="Layer_1" data-name="Layer 1" xmlns="http://www.w3.org/2000/svg" viewBox="0 0 509.89 220.5"><defs><style>.cls-1,.cls-6{fill:#fff;}.cls-1,.cls-3,.cls-4,.cls-5{stroke:#010101;stroke-linecap:round;stroke-linejoin:round;}.cls-1,.cls-3,.cls-4{stroke-width:0.75px;}.cls-2,.cls-7{isolation:isolate;fill:#010101;font-family:Calibri;}.cls-2{font-size:24px;}.cls-3{fill:#94ca54;}.cls-4{fill:#2baee4;}.cls-5{fill:none;stroke-width:1.5px;stroke-dasharray:1.5 3;}.cls-7{font-size:30px;}</style></defs><title>encoding</title><g id="shape2-1"><rect class="cls-1" x="30.81" y="135.48" width="108" height="64.5"/><text class="cls-2" transform="translate(58.85 174.93)">Input</text></g><g id="shape3-4"><rect class="cls-1" x="30.81" y="43.98" width="108" height="64.5"/><text class="cls-2" transform="translate(34.83 83.43)">Dictiona<tspan x="80.55" y="0">r</tspan><tspan x="89.04" y="0">y</tspan></text></g><g id="shape4-7"><rect class="cls-3" x="204.06" y="43.98" width="108" height="64.5"/><text class="cls-2" transform="translate(212.32 83.43)">R<tspan x="12.61" y="0">esiduals</tspan></text></g><g id="shape5-10"><rect class="cls-1" x="204.06" y="135.48" width="108" height="64.5"/><text class="cls-2" transform="translate(227.01 174.93)">Assign</text></g><g id="shape7-13"><rect class="cls-1" x="366.06" y="94.5" width="108" height="64.5"/><text class="cls-2" transform="translate(370.28 133.95)">A<tspan x="13.89" y="0">g</tspan><tspan x="25.41" y="0">g</tspan><tspan x="36.7" y="0">r</tspan><tspan x="44.75" y="0">e</tspan><tspan x="56.69" y="0">g</tspan><tspan x="67.55" y="0">a</tspan><tspan x="78.82" y="0">t</tspan><tspan x="86.6" y="0">e</tspan></text></g><g id="shape9-16"><path class="cls-1" d="M204.25,167.73l-12,5v-2.52H139v-5h53.25v-2.52Z" transform="translate(-0.19)"/></g><g id="shape11-18"><path class="cls-1" d="M204.25,76.23l-12,5V78.75H139v-5h53.25V71.19Z" transform="translate(-0.19)"/></g><g id="shape12-20"><path class="cls-1" d="M204.25,76.23l-2.86,12.7-2.05-1.46-58.28,81.73L139,167.73l-2.05-1.46,58.28-81.73-2.05-1.46Z" transform="translate(-0.19)"/></g><g id="shape13-22"><path class="cls-4" d="M204.25,167.73l-11.07-6.84,2.05-1.46L137,77.7,139,76.23l2.05-1.46,58.28,81.73,2.05-1.46Z" transform="translate(-0.19)"/></g><g id="shape14-24"><path class="cls-1" d="M366.25,126.75L354,122.23l1.72-1.84L310.53,78.07l1.72-1.84L314,74.39l45.24,42.32,1.72-1.84Z" transform="translate(-0.19)"/></g><g id="shape15-26"><path class="cls-1" d="M366.25,126.75L359.73,138l-1.52-2-44.44,33.73-1.52-2-1.52-2L355.16,132l-1.52-2Z" transform="translate(-0.19)"/></g><g id="shape16-28"><path class="cls-1" d="M31,167.73l-12,5v-2.52H0.57v-5H19v-2.52Z" transform="translate(-0.19)"/></g><g id="shape17-30"><path class="cls-1" d="M509.71,126.75l-12,5v-2.52H474.25v-5h23.46v-2.52Z" transform="translate(-0.19)"/></g><g id="group1001-32"><g id="shape26-33"><path class="cls-5" d="M16.8,117.45H160.51" transform="translate(-0.19)"/></g><g id="group1000-36"><g id="shape20-37"><path class="cls-5" d="M16.38,18h468" transform="translate(-0.19)"/><rect class="cls-6" x="156.89" width="186.58" height="36"/><text class="cls-7" transform="translate(156.89 27)">En<tspan x="30.41" y="0">c</tspan><tspan x="42.85" y="0">oding-L</tspan><tspan x="132.99" y="0">a</tspan><tspan x="146.81" y="0">y</tspan><tspan x="160.02" y="0">er</tspan></text></g><g id="shape22-42"><path class="cls-5" d="M160.93,219.75H484.38" transform="translate(-0.19)"/></g><g id="shape23-45"><path class="cls-5" d="M484,219.75V18.41" transform="translate(-0.19)"/></g><g id="shape24-48"><path class="cls-5" d="M16.8,117V18" transform="translate(-0.19)"/></g><g id="shape25-51"><path class="cls-5" d="M160.93,218.13V117" transform="translate(-0.19)"/></g></g></g></svg>